<?xml version="1.0" standalone="no"?>
<!DOCTYPE svg PUBLIC "-//W3C//DTD SVG 20010904//EN"
 "http://www.w3.org/TR/2001/REC-SVG-20010904/DTD/svg10.dtd">
<svg version="1.0" xmlns="http://www.w3.org/2000/svg"
 width="1211.000000pt" height="1217.000000pt" viewBox="0 0 1211.000000 1217.000000"
 preserveAspectRatio="xMidYMid meet">

<g transform="translate(0.000000,1217.000000) scale(0.100000,-0.100000)"
fill="#000000" stroke="none">
<path d="M5822 10260 c-939 -66 -1780 -402 -2497 -999 -49 -41 -174 -158 -276
-260 -340 -341 -584 -681 -798 -1111 -413 -831 -543 -1766 -375 -2690 197
-1080 827 -2062 1738 -2708 178 -126 318 -210 531 -318 469 -237 933 -376
1475 -441 180 -22 724 -25 895 -5 727 84 1366 313 1938 694 254 169 461 339
674 556 693 702 1105 1574 1215 2567 20 186 17 742 -5 925 -87 700 -314 1321
-690 1885 -484 726 -1170 1284 -1974 1606 -360 145 -760 243 -1154 284 -182
19 -535 26 -697 15z m738 -75 c204 -25 364 -54 553 -101 1718 -429 2994 -1903
3171 -3664 70 -691 -25 -1364 -285 -2015 -58 -146 -190 -413 -274 -555 -584
-984 -1529 -1689 -2628 -1960 -352 -86 -603 -115 -1012 -115 -325 0 -434 8
-700 51 -718 117 -1422 439 -1991 911 -1170 972 -1726 2478 -1468 3978 125
722 450 1423 919 1980 740 878 1755 1404 2905 1504 153 14 660 5 810 -14z"/>
<path d="M5859 9840 c-955 -59 -1819 -449 -2495 -1124 -321 -321 -548 -638
-743 -1035 -197 -402 -310 -788 -367 -1261 -25 -203 -25 -657 0 -860 107 -879
465 -1635 1066 -2254 694 -714 1602 -1122 2590 -1165 1118 -49 2163 365 2940
1165 532 548 889 1235 1024 1974 48 263 60 405 60 710 0 305 -12 447 -60 710
-115 629 -390 1219 -808 1735 -124 152 -405 430 -564 557 -523 417 -1084 673
-1734 792 -273 50 -638 73 -909 56z m494 -1209 c277 -41 478 -85 667 -146 547
-177 906 -440 1108 -815 44 -82 154 -354 261 -646 38 -104 85 -231 105 -281
58 -148 49 -213 -54 -393 -49 -86 -60 -113 -60 -150 1 -68 32 -124 119 -214
95 -98 124 -148 124 -219 0 -75 -36 -137 -149 -258 -112 -121 -184 -214 -184
-239 0 -19 27 -30 73 -30 110 0 160 -124 108 -270 l-23 -65 33 -85 c31 -81 32
-90 30 -208 -4 -281 -64 -432 -169 -432 -37 0 -37 -1 -16 -18 51 -41 56 -63
55 -211 -1 -115 2 -153 20 -217 39 -141 30 -241 -28 -305 -67 -74 -173 -109
-334 -109 -185 0 -324 40 -609 175 -206 98 -239 110 -351 125 -378 52 -572
138 -645 286 -24 50 -28 70 -32 183 l-5 127 -141 -48 c-148 -50 -251 -75 -426
-104 -94 -16 -205 -18 -1062 -21 l-958 -4 0 668 0 668 -54 110 c-63 126 -124
306 -156 450 -67 309 -67 721 0 1045 29 140 110 383 165 497 l45 92 0 446 0
445 528 0 528 0 85 31 c123 46 268 87 404 114 105 21 164 30 325 49 19 2 148
3 285 1 187 -3 285 -9 388 -24z"/>
<path d="M5590 8585 c-227 -29 -436 -79 -639 -154 l-84 -31 -504 7 -503 6 0
-435 0 -435 -44 -89 c-82 -164 -155 -411 -191 -639 -22 -140 -30 -443 -16
-590 25 -258 88 -490 191 -704 l60 -123 0 -650 0 -649 938 4 c839 3 948 5
1042 21 163 28 363 82 495 135 l120 48 5 -172 c5 -170 5 -172 35 -221 72 -115
238 -184 567 -233 157 -24 178 -31 418 -145 270 -129 366 -156 558 -157 230
-1 331 62 332 206 0 28 -10 84 -22 125 -17 61 -21 103 -22 228 -1 151 -1 154
-26 174 -19 15 -33 18 -65 13 -81 -12 -135 -7 -183 18 -23 13 -43 16 -68 11
-28 -5 -40 -2 -59 16 -14 13 -37 22 -62 23 -27 2 -46 10 -64 29 -15 15 -43 30
-65 33 -22 4 -43 13 -49 19 -5 7 -34 16 -64 19 -30 4 -57 11 -61 17 -8 14 -67
30 -107 30 -24 0 -33 4 -33 17 0 13 3 14 12 5 16 -16 80 -15 103 2 17 12 23
11 48 -10 32 -27 70 -30 106 -10 22 12 26 11 54 -20 34 -40 77 -45 104 -15 16
20 17 20 45 -1 23 -16 40 -19 74 -15 29 3 47 0 55 -9 15 -18 64 -27 87 -15 14
8 29 5 60 -10 34 -17 47 -19 72 -11 24 9 36 8 60 -6 27 -15 32 -16 57 -2 60
33 88 134 99 345 7 128 6 131 -23 205 -47 117 -49 132 -18 195 22 45 27 65 23
106 -7 66 -29 88 -101 98 -61 8 -84 22 -98 60 -16 42 30 114 167 266 207 227
212 267 54 430 -83 86 -114 137 -131 214 -14 67 0 114 66 227 60 100 89 189
79 243 -4 19 -21 70 -39 115 -18 45 -68 176 -110 291 -114 309 -212 551 -258
630 -119 208 -301 391 -520 524 -310 187 -679 305 -1194 382 -184 28 -595 35
-763 14z m640 -50 c916 -102 1550 -425 1807 -921 58 -111 185 -433 374 -952
29 -80 19 -119 -80 -286 -97 -167 -72 -296 89 -461 43 -44 83 -90 89 -102 29
-58 5 -106 -127 -247 -190 -203 -225 -277 -173 -373 14 -27 70 -53 114 -53 70
0 85 -54 41 -147 -30 -65 -27 -98 18 -213 30 -73 30 -78 24 -197 -6 -140 -29
-253 -57 -285 l-19 -23 -29 32 c-26 27 -31 30 -42 17 -27 -33 -50 -37 -75 -13
-13 12 -24 28 -24 35 0 27 -21 24 -46 -5 -14 -17 -31 -31 -38 -31 -16 0 -49
36 -69 75 -16 29 -16 29 -17 6 0 -14 -7 -32 -16 -42 -15 -16 -19 -17 -43 -4
-15 7 -33 25 -41 39 -18 35 -34 33 -59 -9 -11 -19 -25 -35 -30 -35 -6 0 -22
17 -37 37 -16 21 -31 42 -35 47 -4 5 -22 -3 -39 -18 -17 -14 -38 -26 -47 -26
-8 0 -33 19 -55 43 -29 31 -41 38 -45 28 -3 -8 -17 -25 -31 -38 -31 -28 -57
-17 -78 33 -8 19 -17 34 -20 34 -4 0 -24 -16 -45 -35 -22 -19 -45 -35 -53 -35
-20 0 -76 66 -98 116 -45 104 -43 179 12 415 17 70 30 141 30 159 0 31 -4 26
-56 -56 -76 -120 -162 -299 -176 -368 -16 -75 0 -168 46 -260 33 -67 97 -146
118 -146 5 0 21 14 35 30 22 27 30 30 84 30 54 0 60 -2 71 -25 11 -24 15 -26
63 -20 55 7 85 -8 85 -43 0 -14 2 -14 9 -3 6 10 22 12 56 9 50 -6 65 -19 65
-55 0 -29 13 -29 32 -1 13 20 19 21 44 13 20 -7 30 -18 32 -35 6 -48 8 -50 46
-35 49 21 54 20 91 -20 31 -35 33 -35 61 -20 40 21 49 19 77 -15 29 -34 39
-37 57 -15 11 14 17 13 47 -5 43 -25 63 -25 70 0 7 26 49 27 57 2 4 -10 5 -79
4 -153 -3 -112 0 -143 17 -189 12 -35 19 -82 20 -128 0 -70 -1 -75 -32 -102
-47 -43 -119 -60 -245 -60 -188 0 -275 25 -566 164 -218 104 -239 111 -409
137 -240 36 -378 80 -470 148 -72 53 -77 70 -83 293 -3 108 -8 199 -11 202 -3
4 -50 -14 -105 -38 -196 -87 -440 -151 -666 -175 -61 -7 -422 -11 -958 -11
l-860 0 0 634 0 634 -39 74 c-85 157 -160 386 -198 603 -25 146 -25 557 0 710
40 239 99 437 183 614 l54 113 0 409 0 409 498 3 497 3 160 56 c169 60 343
100 528 122 154 19 472 19 637 1z m919 -3741 c-6 -32 -9 -97 -7 -144 5 -94 35
-173 90 -236 20 -23 25 -34 15 -34 -8 0 -26 -9 -40 -20 l-26 -20 -25 33 c-68
88 -102 232 -76 313 17 52 72 175 76 171 2 -2 -1 -30 -7 -63z m261 -415 c0 -5
-9 -9 -20 -9 -22 0 -27 16 -7 23 15 5 27 -1 27 -14z"/>
<path d="M4740 6250 l0 -1382 448 5 c416 4 454 5 547 26 233 52 424 156 583
318 52 52 95 93 96 91 2 -1 19 -37 39 -78 64 -134 134 -203 206 -202 60 1 151
54 235 136 102 102 152 164 138 178 -5 5 -64 23 -129 38 -65 16 -162 45 -217
64 -54 20 -108 36 -120 36 -45 0 -46 12 -11 92 158 358 176 877 44 1255 -145
414 -441 682 -854 774 -94 21 -129 23 -552 26 l-453 4 0 -1381z m903 1319
c506 -76 844 -401 955 -920 83 -386 39 -807 -117 -1118 -23 -44 -41 -82 -41
-84 0 -2 30 -7 68 -10 38 -3 108 -20 162 -40 52 -19 139 -45 193 -57 53 -12
97 -26 97 -30 0 -4 -38 -46 -85 -93 -60 -61 -103 -95 -151 -118 l-67 -33 -36
21 c-48 28 -100 106 -153 226 -23 53 -45 97 -48 97 -3 0 -18 -19 -35 -42 -48
-69 -152 -174 -224 -227 -96 -71 -182 -115 -303 -156 -172 -57 -252 -65 -685
-65 l-383 0 0 1330 0 1330 391 0 c228 0 420 -4 462 -11z"/>
<path d="M4848 7524 c-5 -4 -8 -578 -8 -1276 l0 -1268 363 0 c383 0 472 7 610
50 398 123 654 441 744 923 21 116 24 462 4 582 -69 417 -259 705 -571 864
-205 105 -308 122 -775 128 -198 3 -363 1 -367 -3z"/>
<path d="M6510 5370 c0 -27 83 -179 114 -209 l34 -33 50 27 c61 33 152 122
131 128 -8 2 -72 23 -144 46 -165 52 -185 56 -185 41z"/>
<path d="M7929 6491 c-100 -39 -259 -166 -349 -278 -62 -77 -61 -74 -76 -243
-3 -41 -14 -117 -24 -168 l-17 -93 27 -40 c57 -86 176 -142 300 -143 78 0 129
16 161 50 20 22 24 36 24 93 0 62 -4 76 -59 184 l-60 116 18 56 c9 30 44 114
78 187 73 159 88 201 88 242 0 58 -31 69 -111 37z m61 -46 c0 -22 -42 -127
-100 -249 -58 -123 -83 -206 -73 -245 3 -14 28 -69 55 -121 83 -164 76 -229
-26 -250 -101 -21 -218 15 -290 89 l-39 40 17 105 c9 59 19 148 22 199 4 56
12 102 22 117 24 39 161 178 224 227 55 42 160 103 179 103 5 0 9 -7 9 -15z"/>
<path d="M7830 6307 c-30 -24 -89 -80 -131 -124 l-76 -80 -7 -79 c-3 -43 -14
-128 -23 -188 l-16 -109 36 -33 c53 -49 164 -76 235 -58 37 10 28 60 -33 180
-79 155 -76 192 34 427 27 59 47 107 43 107 -4 0 -32 -20 -62 -43z"/>
<path d="M7955 4220 c3 -5 17 -10 31 -10 14 0 22 4 19 10 -3 6 -17 10 -31 10
-14 0 -22 -4 -19 -10z"/>
<path d="M8079 4196 c13 -15 92 -29 117 -19 21 8 -49 33 -95 33 -27 0 -31 -3
-22 -14z"/>
<path d="M8260 4190 c0 -5 5 -10 11 -10 5 0 7 5 4 10 -3 6 -8 10 -11 10 -2 0
-4 -4 -4 -10z"/>
</g>
</svg>
