<?xml version="1.0" standalone="no"?>
<!DOCTYPE svg PUBLIC "-//W3C//DTD SVG 20010904//EN"
 "http://www.w3.org/TR/2001/REC-SVG-20010904/DTD/svg10.dtd">
<svg version="1.0" xmlns="http://www.w3.org/2000/svg"
 width="200.000000pt" height="200.000000pt" viewBox="0 0 200.000000 200.000000"
 preserveAspectRatio="xMidYMid meet">

<g transform="translate(0.000000,200.000000) scale(0.100000,-0.100000)"
fill="#000000" stroke="none">
<path d="M983 1673 c15 -2 37 -2 50 0 12 2 0 4 -28 4 -27 0 -38 -2 -22 -4z"/>
<path d="M893 1663 c9 -2 23 -2 30 0 6 3 -1 5 -18 5 -16 0 -22 -2 -12 -5z"/>
<path d="M1093 1663 c9 -2 23 -2 30 0 6 3 -1 5 -18 5 -16 0 -22 -2 -12 -5z"/>
<path d="M838 1653 c7 -3 16 -2 19 1 4 3 -2 6 -13 5 -11 0 -14 -3 -6 -6z"/>
<path d="M1158 1653 c7 -3 16 -2 19 1 4 3 -2 6 -13 5 -11 0 -14 -3 -6 -6z"/>
<path d="M755 1631 c-53 -25 -43 -26 20 -1 28 10 43 19 35 19 -8 0 -33 -8 -55
-18z"/>
<path d="M1260 1620 c8 -5 20 -10 25 -10 6 0 3 5 -5 10 -8 5 -19 10 -25 10 -5
0 -3 -5 5 -10z"/>
<path d="M625 1564 c-89 -58 -145 -113 -200 -194 -40 -60 -79 -139 -72 -146 1
-1 19 30 39 69 62 119 159 220 278 290 25 15 40 27 35 27 -6 0 -42 -20 -80
-46z"/>
<path d="M908 1600 c-220 -40 -404 -184 -483 -379 -36 -87 -46 -145 -46 -247
0 -248 132 -456 356 -564 97 -46 159 -60 273 -60 194 0 359 78 484 227 96 115
142 248 141 408 -2 213 -100 395 -280 515 -124 83 -310 125 -445 100z m138
-191 c86 -12 187 -46 179 -60 -4 -5 0 -6 8 -3 34 13 137 -116 123 -152 -3 -8
-2 -13 3 -10 15 10 49 -106 40 -132 -5 -13 -13 -20 -19 -17 -7 4 -7 -3 0 -20
13 -33 13 -38 0 -30 -18 11 -11 -1 12 -21 22 -19 23 -19 8 1 -14 19 -14 19 3
6 24 -19 21 -36 -10 -78 -24 -32 -25 -36 -10 -45 9 -5 17 -16 17 -24 0 -8 -4
-13 -8 -10 -4 2 -8 -4 -8 -14 0 -10 4 -16 9 -13 5 3 6 -18 2 -48 -3 -30 -7
-82 -8 -117 -1 -43 -7 -66 -17 -72 -25 -16 -82 -11 -130 11 -25 11 -67 25 -94
30 -58 11 -86 33 -86 67 0 21 -3 23 -22 17 -13 -5 -110 -10 -215 -12 l-193 -5
0 110 c0 76 -5 121 -15 146 -10 23 -14 52 -10 74 4 28 3 32 -4 17 -7 -15 -10
-7 -10 36 -1 67 8 121 19 114 5 -3 6 5 2 17 -3 12 -1 19 5 15 5 -3 9 2 9 11 0
9 1 54 2 100 l2 82 91 0 c50 0 99 5 110 10 10 6 45 15 77 19 31 5 58 9 59 10
1 0 36 -4 79 -10z"/>
<path d="M908 1393 c7 -3 16 -2 19 1 4 3 -2 6 -13 5 -11 0 -14 -3 -6 -6z"/>
<path d="M1038 1393 c7 -3 16 -2 19 1 4 3 -2 6 -13 5 -11 0 -14 -3 -6 -6z"/>
<path d="M642 1298 l2 -73 3 67 4 67 82 4 82 3 -87 2 -88 2 2 -72z"/>
<path d="M800 1019 l0 -211 83 6 c114 9 126 10 121 17 -2 3 10 19 26 34 38 36
54 84 53 161 -1 136 -76 204 -225 204 l-58 0 0 -211z"/>
<path d="M602 1100 c0 -14 2 -19 5 -12 2 6 2 18 0 25 -3 6 -5 1 -5 -13z"/>
<path d="M1277 1012 c-9 -10 -18 -33 -19 -52 -3 -30 0 -35 20 -38 21 -3 21 -2
10 23 -9 20 -9 34 -1 56 13 34 12 35 -10 11z"/>
<path d="M626 915 c5 -11 11 -72 14 -135 l6 -115 2 110 c1 83 -2 116 -14 135
-9 15 -12 17 -8 5z"/>
<path d="M1379 903 l-24 -28 28 24 c15 14 27 26 27 28 0 8 -8 1 -31 -24z"/>
<path d="M1268 903 c6 -2 18 -2 25 0 6 3 1 5 -13 5 -14 0 -19 -2 -12 -5z"/>
<path d="M1039 853 c-13 -17 -13 -17 6 -3 11 8 22 16 24 17 2 2 0 3 -6 3 -6 0
-17 -8 -24 -17z"/>
<path d="M1077 856 c-4 -11 1 -13 24 -11 21 3 28 1 23 -8 -4 -7 2 -3 14 7 23
20 31 36 9 18 -8 -7 -18 -7 -27 -2 -21 14 -37 12 -43 -4z"/>
<path d="M1176 795 c-3 -8 -1 -15 4 -15 6 0 10 7 10 15 0 8 -2 15 -4 15 -2 0
-6 -7 -10 -15z"/>
<path d="M1196 718 c5 -8 2 -9 -12 -4 -10 4 -15 3 -10 -1 4 -4 17 -8 29 -9 12
-1 29 -3 37 -6 8 -3 12 -3 7 -1 -4 3 -4 10 0 16 3 7 3 9 -1 5 -5 -4 -19 -3
-33 3 -18 6 -22 6 -17 -3z"/>
<path d="M1365 700 c-16 -7 -17 -9 -3 -9 9 -1 20 4 23 9 7 11 7 11 -20 0z"/>
<path d="M1338 663 c6 -2 18 -2 25 0 6 3 1 5 -13 5 -14 0 -19 -2 -12 -5z"/>
<path d="M1371 584 c0 -11 3 -14 6 -6 3 7 2 16 -1 19 -3 4 -6 -2 -5 -13z"/>
<path d="M1340 1586 c0 -3 9 -10 20 -16 11 -6 20 -8 20 -6 0 3 -9 10 -20 16
-11 6 -20 8 -20 6z"/>
<path d="M1390 1557 c0 -2 19 -19 43 -37 23 -19 36 -26 28 -17 -15 19 -71 61
-71 54z"/>
<path d="M1495 1470 c10 -11 20 -20 23 -20 3 0 -3 9 -13 20 -10 11 -20 20 -23
20 -3 0 3 -9 13 -20z"/>
<path d="M1550 1403 c18 -24 35 -43 37 -43 7 0 -35 56 -54 71 -9 8 -2 -5 17
-28z"/>
<path d="M1600 1330 c6 -11 13 -20 16 -20 2 0 0 9 -6 20 -6 11 -13 20 -16 20
-2 0 0 -9 6 -20z"/>
<path d="M1640 1255 c0 -5 5 -17 10 -25 5 -8 10 -10 10 -5 0 6 -5 17 -10 25
-5 8 -10 11 -10 5z"/>
<path d="M325 1150 c-4 -17 -5 -34 -2 -36 2 -3 7 10 11 27 8 42 0 50 -9 9z"/>
<path d="M1681 1124 c0 -11 3 -14 6 -6 3 7 2 16 -1 19 -3 4 -6 -2 -5 -13z"/>
<path d="M312 1070 c0 -19 2 -27 5 -17 2 9 2 25 0 35 -3 9 -5 1 -5 -18z"/>
<path d="M1692 1070 c0 -14 2 -19 5 -12 2 6 2 18 0 25 -3 6 -5 1 -5 -13z"/>
<path d="M303 975 c0 -22 2 -30 4 -17 2 12 2 30 0 40 -3 9 -5 -1 -4 -23z"/>
<path d="M1701 974 c0 -11 3 -14 6 -6 3 7 2 16 -1 19 -3 4 -6 -2 -5 -13z"/>
<path d="M313 885 c0 -22 2 -30 4 -17 2 12 2 30 0 40 -3 9 -5 -1 -4 -23z"/>
<path d="M1692 880 c0 -19 2 -27 5 -17 2 9 2 25 0 35 -3 9 -5 1 -5 -18z"/>
<path d="M320 829 c0 -9 9 -41 20 -73 43 -126 121 -239 221 -323 58 -47 194
-119 244 -128 17 -3 6 4 -22 14 -109 41 -177 85 -263 171 -92 92 -138 165
-176 285 -13 38 -23 63 -24 54z"/>
<path d="M1681 824 c0 -11 3 -14 6 -6 3 7 2 16 -1 19 -3 4 -6 -2 -5 -13z"/>
<path d="M1671 784 c0 -11 3 -14 6 -6 3 7 2 16 -1 19 -3 4 -6 -2 -5 -13z"/>
<path d="M1615 652 c-29 -57 -61 -99 -124 -162 -87 -86 -154 -130 -264 -171
-28 -10 -38 -17 -22 -14 54 10 176 74 241 126 34 27 84 78 110 112 44 59 109
175 102 182 -2 2 -21 -31 -43 -73z"/>
<path d="M848 293 c6 -2 18 -2 25 0 6 3 1 5 -13 5 -14 0 -19 -2 -12 -5z"/>
<path d="M1148 293 c7 -3 16 -2 19 1 4 3 -2 6 -13 5 -11 0 -14 -3 -6 -6z"/>
<path d="M903 283 c9 -2 25 -2 35 0 9 3 1 5 -18 5 -19 0 -27 -2 -17 -5z"/>
<path d="M1078 283 c12 -2 30 -2 40 0 9 3 -1 5 -23 4 -22 0 -30 -2 -17 -4z"/>
<path d="M998 273 c7 -3 16 -2 19 1 4 3 -2 6 -13 5 -11 0 -14 -3 -6 -6z"/>
</g>
</svg>
